:version 1.10
:name ASF
:units
  mass 1
  length 1
  angle deg
:documentation
  ASF file generated by Kaydara
:root
  axis xyz
  order  tx ty tz rx ry rz
  position 0 0 0
  orientation 0 0 0
:bonedata
  begin
    id 1
    name RightUpLegDummy
    direction -0.718183 -0.695806 0.00816078
    length 4.904
    axis 0 0 0 xyz
  end
  begin
    id 2
    name RightUpLeg
    direction -0.0736652 -0.994202 0.0783343
    length 17.4976
    axis -2.72909 -3.00389 -4.00133 xyz
    dof rx ry rz
  end
  begin
    id 3
    name RightLeg
    direction -0.0389037 -0.994596 -0.0962598
    length 16.5821
    axis 3.95836 -18.5909 -4.46993 xyz
    dof rx ry rz
  end
  begin
    id 4
    name RightFoot
    direction -0.311643 -0.412678 0.855906
    length 3.77069
    axis -1.99483 -18.8351 -3.27644 xyz
    dof rx ry rz
  end
  begin
    id 5
    name RightToes
    direction -0.317852 0.0389852 0.947339
    length 3.85082
    axis -2.00228 -18.1713 -3.25211 xyz
    dof rx ry rz
  end
  begin
    id 6
    name SpineDummy
    direction 8.3039e-015 1 4.44677e-016
    length 4.6813
    axis 0 0 0 xyz
  end
  begin
    id 7
    name Spine
    direction -0.000262373 0.999988 0.00493267
    length 10.1015
    axis -0.00246081 0.00062579 0.0150362 xyz
    dof rx ry rz
  end
  begin
    id 8
    name Spine1
    direction 0 0 0
    length 0
    axis -0.00349562 0.000650293 0.0196666 xyz
    dof rx ry rz
  end
  begin
    id 9
    name HEadDummy
    direction -0.000343232 0.999999 0.00123745
    length 3.43865
    axis -0.00349562 0.000650293 0.0196666 xyz
  end
  begin
    id 10
    name HEad
    direction -0.0461221 0.980933 0.188796
    length 5.12695
    axis -0.00351404 -7.04812 0.0199272 xyz
    dof rx ry rz
  end
  begin
    id 11
    name LeftShoulder1Dummy
    direction 0.998904 -0.0399089 -0.0244534
    length 3.5433
    axis -0.00349562 0.000650293 0.0196666 xyz
  end
  begin
    id 12
    name LeftShoulder1
    direction 0.99951 1.64443e-005 0.0312999
    length 4.05031
    axis -0.00349562 0.000650293 0.0196666 xyz
    dof rx ry rz
  end
  begin
    id 13
    name LeftArm
    direction 0.984791 0.0515299 0.165927
    length 12.9126
    axis -64.823 -10.7743 5.20463 xyz
    dof rx ry rz
  end
  begin
    id 14
    name LeftForeArm
    direction 0.984968 0.0534808 0.16425
    length 10.8596
    axis -30.0462 -7.70601 1.87451 xyz
    dof rx ry rz
  end
  begin
    id 15
    name LeftHand
    direction 0.975871 0.0289682 0.216418
    length 6.62295
    axis -20.1348 -6.98077 1.86072 xyz
    dof rx ry rz
  end
  begin
    id 16
    name RightShoulderDummy
    direction -0.998877 -0.0405946 -0.0244307
    length 3.5433
    axis -0.00349562 0.000650293 0.0196666 xyz
  end
  begin
    id 17
    name RightShoulder
    direction -0.998933 -0.0249743 -0.0388558
    length 4.05031
    axis -0.0205316 -4.02113 1.41395 xyz
    dof rx ry rz
  end
  begin
    id 18
    name RightArm
    direction -0.997559 0.068664 0.0127103
    length 12.9638
    axis -67.3882 1.84188 -6.15987 xyz
    dof rx ry rz
  end
  begin
    id 19
    name RightForeArm
    direction -0.991508 0.0912848 0.0926241
    length 10.8312
    axis -22.1975 3.41087 -4.28711 xyz
    dof rx ry rz
  end
  begin
    id 20
    name RightHand
    direction -0.989262 0.0600788 0.133232
    length 6.57864
    axis -12.2911 2.17515 -4.39675 xyz
    dof rx ry rz
  end
  begin
    id 21
    name LeftUpLegDummy
    direction 0.718183 -0.695806 0.00816078
    length 4.904
    axis 0 0 0 xyz
  end
  begin
    id 22
    name LeftUpLeg
    direction 0.0831398 -0.99469 0.0606531
    length 17.4976
    axis -1.71016 2.29552 4.63832 xyz
    dof rx ry rz
  end
  begin
    id 23
    name LeftLeg
    direction 0.0498442 -0.991778 -0.117862
    length 16.5821
    axis 5.13757 15.5727 5.13348 xyz
    dof rx ry rz
  end
  begin
    id 24
    name LeftFoot
    direction 0.269026 -0.433896 0.85986
    length 3.77069
    axis -0.576502 15.6961 4.10267 xyz
    dof rx ry rz
  end
  begin
    id 25
    name LeftToes
    direction 0.277311 0.0251143 0.960452
    length 3.85048
    axis -0.576502 15.6961 4.10267 xyz
    dof rx ry rz
  end
:hierarchy
  begin
    root RightUpLegDummy SpineDummy LeftUpLegDummy
    RightUpLegDummy RightUpLeg
    RightUpLeg RightLeg
    RightLeg RightFoot
    RightFoot RightToes
    SpineDummy Spine
    Spine Spine1
    Spine1 HEadDummy LeftShoulder1Dummy RightShoulderDummy
    HEadDummy HEad
    LeftShoulder1Dummy LeftShoulder1
    LeftShoulder1 LeftArm
    LeftArm LeftForeArm
    LeftForeArm LeftHand
    RightShoulderDummy RightShoulder
    RightShoulder RightArm
    RightArm RightForeArm
    RightForeArm RightHand
    LeftUpLegDummy LeftUpLeg
    LeftUpLeg LeftLeg
    LeftLeg LeftFoot
    LeftFoot LeftToes
  end

:SAMPLES-PER-SECOND 30
:FULLY-SPECIFIED
:DEGREES
159
root  1.42814 41.4962 17.0635 -160.827 -0.466476 177.099
RightUpLeg  -2.05749 -11.3762 -3.66656
RightLeg  27.4753 16.2835 -0.492878
RightFoot  26.2775 -5.31178 14.4253
RightToes  3.97569e-016 -3.18055e-015 -2.98177e-016
Spine  5.15528 -2.5487 7.38969
Spine1  -13.7549 -1.40363 -4.02747
HEad  -1.91976 2.78791 0.467162
LeftShoulder1  -3.88251e-019 9.70628e-020 -3.87848e-018
LeftArm  -6.09122 -29.2771 -63.2891
LeftForeArm  -38.7913 -72.9445 38.4816
LeftHand  -3.96986 -15.9298 22.0229
RightShoulder  -0.814701 -2.16283 -10.0431
RightArm  -0.108661 20.1996 62.0749
RightForeArm  -36.4296 65.0802 -66.9693
RightHand  -1.26857 -2.3536 -46.971
LeftUpLeg  -9.0579 7.84785 -0.0444147
LeftLeg  39.4264 -11.152 3.1005
LeftFoot  25.7265 5.03058 -14.0001
LeftToes  4.86531e-011 4.41684e-011 -2.86034e-011
160
root  1.67031 42.334 14.4909 -162.302 -2.91194 177.24
RightUpLeg  -3.38526 -11.9282 -2.71785
RightLeg  42.164 20.0548 3.51121
RightFoot  24.001 -4.83685 13.9844
RightToes  3.97569e-016 -3.18055e-015 -2.98177e-016
Spine  3.68293 -3.20631 6.93286
Spine1  -14.6715 -1.84476 -3.94974
HEad  4.45592 1.96002 0.917384
LeftShoulder1  -3.88251e-019 9.70628e-020 -3.87848e-018
LeftArm  -2.61625 -24.2227 -63.8431
LeftForeArm  -37.0884 -73.2981 40.0581
LeftHand  -4.41723 -17.3738 22.8631
RightShoulder  -0.860248 -2.37993 -10.8296
RightArm  -1.10172 16.123 60.3908
RightForeArm  -49.7213 66.3892 -74.2148
RightHand  -4.10701 6.61346 -38.3069
LeftUpLeg  -14.5101 4.92585 1.82125
LeftLeg  59.229 -11.2582 4.94477
LeftFoot  24.0898 3.97563 -11.5742
LeftToes  4.86531e-011 4.41684e-011 -2.86034e-011
161
root  1.86138 42.7458 12.2482 -165.696 -3.99811 177.694
RightUpLeg  -4.72688 -13.7548 -3.01507
RightLeg  60.6846 20.4696 7.87684
RightFoot  16.5684 -3.64387 13.397
RightToes  3.97569e-016 -3.18055e-015 -2.98177e-016
Spine  5.43898 -3.66839 6.75637
Spine1  -14.453 -1.88541 -4.61851
HEad  8.29819 1.57066 1.55804
LeftShoulder1  -3.88251e-019 9.70628e-020 -3.87848e-018
LeftArm  -1.47723 -17.6043 -64.3334
LeftForeArm  -40.4744 -74.4456 44.0945
LeftHand  -4.74048 -17.7521 24.071
RightShoulder  -0.724598 -1.10769 -9.08023
RightArm  -1.39414 12.1189 58.4096
RightForeArm  -56.7128 66.9651 -79.4512
RightHand  -4.96076 12.187 -31.6409
LeftUpLeg  -19.3129 4.40948 3.27753
LeftLeg  80.8784 -13.0437 4.23754
LeftFoot  22.3384 2.7914 -8.54259
LeftToes  4.86531e-011 4.41684e-011 -2.86034e-011
162
root  2.03889 42.9164 10.2198 -169.438 -3.72745 178.226
RightUpLeg  -7.04971 -14.519 -3.81927
RightLeg  76.3058 17.5557 6.52689
RightFoot  8.23132 -2.28562 11.7266
RightToes  3.97569e-016 -3.18055e-015 -2.98177e-016
Spine  7.65052 -3.47209 5.97998
Spine1  -12.0561 -1.33273 -4.65366
HEad  9.32342 1.68288 2.19681
LeftShoulder1  -3.88251e-019 9.70628e-020 -3.87848e-018
LeftArm  -1.5074 -10.2682 -64.9745
LeftForeArm  -44.6599 -75.0104 45.8923
LeftHand  -5.12944 -16.4933 27.4395
RightShoulder  -0.477281 -0.0427785 -6.16881
RightArm  1.0091 7.03823 56.8993
RightForeArm  -54.2998 66.8752 -79.1657
RightHand  -4.96718 9.87289 -36.3723
LeftUpLeg  -24.6956 6.25396 3.93434
LeftLeg  100.167 -14.0745 2.83915
LeftFoot  19.6313 1.15892 -3.69197
LeftToes  4.86531e-011 4.41684e-011 -2.86034e-011
163
root  2.21183 42.8157 8.31654 -171.763 -2.48254 178.883
RightUpLeg  -12.8978 -14.7858 -3.5878
RightLeg  88.699 15.9902 -0.672615
RightFoot  0.534773 -0.728242 5.73878
RightToes  3.97569e-016 -3.18055e-015 -2.98177e-016
Spine  9.37495 -2.73664 5.54787
Spine1  -9.17828 -0.442581 -4.82603
HEad  7.56542 1.73753 2.92866
LeftShoulder1  -3.88251e-019 9.70628e-020 -3.87848e-018
LeftArm  -1.89079 -3.49212 -65.3808
LeftForeArm  -39.0927 -73.1357 38.9502
LeftHand  -5.32012 -14.8879 30.5547
RightShoulder  -0.135605 0.969136 -2.81342
RightArm  2.23272 1.41855 55.4718
RightForeArm  -53.9555 66.7328 -76.757
RightHand  -4.94214 8.54002 -39.3698
LeftUpLeg  -32.6358 10.0107 2.98729
LeftLeg  114.016 -16.1425 5.73094
LeftFoot  13.386 -0.661462 3.06424
LeftToes  4.86531e-011 4.41684e-011 -2.86034e-011
164
root  2.3987 42.3915 6.23206 -172.794 -0.439377 179.041
RightUpLeg  -21.2657 -15.025 -2.19219
RightLeg  95.6267 17.5019 -11.4004
RightFoot  -5.70704 0.226651 -3.14393
RightToes  3.97569e-016 -3.18055e-015 -2.98177e-016
Spine  11.0408 -1.78084 5.2865
Spine1  -7.29643 0.299299 -6.52257
HEad  4.68551 1.58714 3.75972
LeftShoulder1  -3.88251e-019 9.70628e-020 -3.87848e-018
LeftArm  -2.7943 3.34398 -65.3532
LeftForeArm  -28.2603 -68.6222 29.2368
LeftHand  -4.92446 -14.6033 28.7777
RightShoulder  0.495838 2.88721 1.7722
RightArm  3.13423 -4.77267 53.1351
RightForeArm  -49.3601 66.1374 -71.6203
RightHand  -4.47095 7.72406 -37.9312
LeftUpLeg  -42.0042 13.8812 -0.901109
LeftLeg  118.3 -20.6465 12.6518
LeftFoot  4.83055 -1.28331 8.10513
LeftToes  4.86531e-011 4.41684e-011 -2.86034e-011
165
root  2.53797 41.7508 4.00895 -174.24 1.77374 178.487
RightUpLeg  -29.4338 -14.6962 -0.348526
RightLeg  94.9122 19.065 -20.2082
RightFoot  -10.7436 0.227549 -8.11359
RightToes  3.97569e-016 -3.18055e-015 -2.98177e-016
Spine  13.8839 -1.19355 4.62326
Spine1  -5.91753 0.646532 -8.64826
HEad  1.42387 2.02685 4.13735
LeftShoulder1  -3.88251e-019 9.70628e-020 -3.87848e-018
LeftArm  -4.4679 10.256 -64.7215
LeftForeArm  -19.9609 -62.1704 21.1636
LeftHand  -3.9256 -13.5382 24.445
RightShoulder  1.44465 5.08325 7.36794
RightArm  4.95301 -10.9546 50.2099
RightForeArm  -40.2193 64.9112 -64.8649
RightHand  -4.02847 7.7153 -34.4696
LeftUpLeg  -49.5743 14.9684 -5.75187
LeftLeg  112.177 -22.0905 18.2072
LeftFoot  -3.71669 -0.704155 8.10618
LeftToes  4.86531e-011 4.41684e-011 -2.86034e-011
166
root  2.58074 40.893 1.94238 -176.838 3.67104 178.341
RightUpLeg  -35.7325 -13.1281 1.93407
RightLeg  88.5555 17.1146 -21.0462
RightFoot  -14.4296 -0.030532 -7.49109
RightToes  3.97569e-016 -3.18055e-015 -2.98177e-016
Spine  17.9918 -1.11116 4.41496
Spine1  -3.76723 0.801901 -9.45685
HEad  -3.17338 3.56703 3.65731
LeftShoulder1  -3.88251e-019 9.70628e-020 -3.87848e-018
LeftArm  -6.53702 16.1522 -63.5403
LeftForeArm  -17.2848 -53.6617 14.7366
LeftHand  -3.01355 -11.0414 21.8735
RightShoulder  2.36568 6.51926 12.2969
RightArm  7.18251 -16.5342 47.5876
RightForeArm  -30.4831 62.7096 -56.0214
RightHand  -3.51823 7.1616 -31.5368
LeftUpLeg  -52.7794 13.2485 -7.28117
LeftLeg  99.9148 -17.7958 17.588
LeftFoot  -10.3368 -0.133489 4.49927
LeftToes  4.86531e-011 4.41684e-011 -2.86034e-011
167
root  2.59315 40.0373 -0.0925034 -178.726 5.59004 179.47
RightUpLeg  -39.7923 -10.5619 5.55167
RightLeg  75.8369 13.4229 -15.4998
RightFoot  -16.9244 -0.0895721 -4.65033
RightToes  3.97569e-016 -3.18055e-015 -2.98177e-016
Spine  21.1835 -1.1098 5.71138
Spine1  -0.743294 1.09112 -9.54193
HEad  -8.3793 5.57661 2.80598
LeftShoulder1  -3.88251e-019 9.70628e-020 -3.87848e-018
LeftArm  -8.45882 21.9821 -62.1297
LeftForeArm  -20.6177 -45.2179 10.4353
LeftHand  -2.67244 -9.00761 22.1688
RightShoulder  3.12016 7.43277 16.0531
RightArm  8.43541 -21.9074 45.3536
RightForeArm  -21.462 58.7891 -45.5159
RightHand  -2.65326 5.40721 -27.764
LeftUpLeg  -52.2413 11.1593 -5.55756
LeftLeg  82.3549 -12.7392 13.0393
LeftFoot  -15.6916 -0.000355432 1.7163
LeftToes  4.86531e-011 4.41684e-011 -2.86034e-011
168
root  2.65455 39.068 -2.32459 -177.864 7.69174 -178.92
RightUpLeg  -41.8671 -7.74927 9.82529
RightLeg  55.9011 12.1483 -7.37105
RightFoot  -19.0374 -0.0175881 -1.2515
RightToes  3.97569e-016 -3.18055e-015 -2.98177e-016
Spine  21.416 -0.92393 7.49933
Spine1  1.57628 1.48453 -10.0666
HEad  -11.2247 7.23644 2.17466
LeftShoulder1  -3.88251e-019 9.70628e-020 -3.87848e-018
LeftArm  -10.0787 30.1292 -60.7474
LeftForeArm  -27.815 -39.7812 8.05007
LeftHand  -2.44792 -7.32108 23.0416
RightShoulder  3.93355 8.38554 19.6628
RightArm  9.79595 -27.8708 42.13
RightForeArm  -11.4949 53.0524 -35.9275
RightHand  -2.07513 4.66999 -23.5631
LeftUpLeg  -49.7688 9.03216 -2.82442
LeftLeg  59.7105 -9.64118 8.28847
LeftFoot  -20.2001 -0.0405745 0.128517
LeftToes  4.86531e-011 4.41684e-011 -2.86034e-011
169
root  2.78316 37.1965 -4.85363 -176.016 9.51245 -178.532
RightUpLeg  -43.218 -4.92003 12.2124
RightLeg  37.7109 14.3369 -1.85832
RightFoot  -16.1843 0.0709369 -0.0511272
RightToes  3.97569e-016 -3.18055e-015 -2.98177e-016
Spine  20.2055 -0.490392 7.22161
Spine1  1.74972 1.70196 -10.5046
HEad  -11.1674 8.30333 1.41379
LeftShoulder1  -3.88251e-019 9.70628e-020 -3.87848e-018
LeftArm  -10.108 39.7276 -59.5556
LeftForeArm  -34.3076 -35.4489 6.50663
LeftHand  -2.22795 -5.92514 23.6224
RightShoulder  4.91779 9.30161 23.92
RightArm  15.0281 -33.7022 35.2819
RightForeArm  -1.30713 46.9269 -29.0697
RightHand  -2.14067 6.15378 -21.211
LeftUpLeg  -47.5394 5.30747 -0.355285
LeftLeg  40.8543 -7.4341 6.58904
LeftFoot  -18.1149 -0.100814 -1.14013
LeftToes  4.86531e-011 4.41684e-011 -2.86034e-011
170
root  2.90699 34.778 -7.26784 -177.27 10.6092 -179.163
RightUpLeg  -45.7318 -1.62968 11.7394
RightLeg  35.9822 14.079 -2.36197
RightFoot  -7.89983 0.288804 -4.90098
RightToes  3.97569e-016 -3.18055e-015 -2.98177e-016
Spine  21.7219 -0.20457 5.75504
Spine1  0.912766 1.64808 -9.74195
HEad  -11.5337 8.72235 -0.0395168
LeftShoulder1  -3.88251e-019 9.70628e-020 -3.87848e-018
LeftArm  -9.81002 46.2192 -59.0598
LeftForeArm  -34.3039 -28.2081 3.56795
LeftHand  -2.26445 -5.60942 24.6851
RightShoulder  5.94498 9.90089 28.5465
RightArm  24.0895 -37.1919 25.1483
RightForeArm  7.38858 41.1569 -24.1647
RightHand  -2.50542 7.79649 -21.7176
LeftUpLeg  -47.7311 1.12899 1.46068
LeftLeg  38.8503 -5.50621 8.05695
LeftFoot  -8.79809 -0.0385541 -0.0802603
LeftToes  4.86531e-011 4.41684e-011 -2.86034e-011
171
root  2.99208 32.2938 -9.33205 177.68 10.414 -179.651
RightUpLeg  -49.2492 0.148815 10.1548
RightLeg  52.3234 13.0622 -4.86165
RightFoot  -3.71774 0.867623 -10.8307
RightToes  3.97569e-016 -3.18055e-015 -2.98177e-016
Spine  26.3048 -0.576355 5.50462
Spine1  2.00085 1.54115 -9.09869
HEad  -14.2592 8.4 -1.6942
LeftShoulder1  -3.88251e-019 9.70628e-020 -3.87848e-018
LeftArm  -17.1377 46.948 -60.1162
LeftForeArm  -23.9969 -18.0418 -2.06397
LeftHand  -2.26825 -5.23179 25.6097
RightShoulder  6.93116 10.3087 32.955
RightArm  30.1657 -37.8115 17.6076
RightForeArm  14.6174 33.6285 -19.1053
RightHand  -2.85464 8.0732 -24.2064
LeftUpLeg  -50.4084 0.290816 1.28504
LeftLeg  53.8709 -8.31246 8.661
LeftFoot  -2.21409 -0.153507 1.68184
LeftToes  4.86531e-011 4.41684e-011 -2.86034e-011
